<svg width="108" height="27" viewBox="0 0 108 27" fill="none" xmlns="http://www.w3.org/2000/svg">
<path d="M31.8988 23.0797C35.2069 23.0797 37.8887 20.3979 37.8887 17.0897C37.8887 13.7815 35.2069 11.0997 31.8988 11.0997C28.5906 11.0997 25.9088 13.7815 25.9088 17.0897C25.9088 20.3979 28.5906 23.0797 31.8988 23.0797Z" fill="url(#paint0_linear_128_16477)"/>
<path d="M35.5061 20.8077C35.0305 21.306 34.4535 21.6964 33.8142 21.9527C33.1748 22.209 32.488 22.3251 31.7999 22.2934C31.1345 22.2845 30.4779 22.1397 29.8705 21.8679C29.2631 21.5962 28.7176 21.2031 28.2676 20.7129C27.3253 19.7116 26.8109 18.3822 26.8338 17.0075C26.8567 15.6328 27.415 14.3213 28.39 13.3519C28.8617 12.847 29.4374 12.4506 30.0773 12.19C30.7172 11.9294 31.406 11.8109 32.0962 11.8425C32.7633 11.857 33.4205 12.007 34.0277 12.2835C34.635 12.56 35.1796 12.9571 35.6286 13.4507C36.5822 14.4431 37.1045 15.7724 37.0816 17.1485C37.0586 18.5246 36.4923 19.8358 35.5061 20.7959V20.8077ZM31.8197 20.9816C32.3416 21.0191 32.8652 20.9363 33.3502 20.7397C33.8351 20.5431 34.2686 20.2379 34.6171 19.8476C34.9922 19.4724 35.2863 19.0242 35.4814 18.5309C35.6764 18.0375 35.7682 17.5093 35.7511 16.9791C35.7283 15.9695 35.323 15.0064 34.6171 14.2844C34.2895 13.9263 33.89 13.6416 33.4446 13.4489C32.9993 13.2562 32.5182 13.1598 32.033 13.1662C31.5281 13.1527 31.0261 13.2452 30.5592 13.4378C30.0923 13.6304 29.671 13.9188 29.3225 14.2844C28.9623 14.6348 28.6758 15.0537 28.4797 15.5165C28.2836 15.9792 28.1819 16.4765 28.1806 16.9791C28.1474 18.0007 28.5179 18.9943 29.2119 19.7449C29.536 20.1218 29.9355 20.4267 30.3847 20.6397C30.8338 20.8527 31.3227 20.9692 31.8197 20.9816Z" fill="white"/>
<path d="M47.573 22.0682H46.2256V16.2442C46.227 15.8388 46.1457 15.4373 45.9868 15.0644C45.8278 14.6914 45.5945 14.3548 45.3011 14.075C45.0272 13.7847 44.6964 13.5541 44.3292 13.3977C43.962 13.2414 43.5665 13.1625 43.1674 13.1662C42.353 13.1724 41.5737 13.4987 40.9979 14.0746C40.422 14.6505 40.0957 15.4298 40.0895 16.2442V22.0682H38.75V16.3864C38.7316 15.7924 38.8338 15.2007 39.0504 14.6472C39.2671 14.0938 39.5937 13.59 40.0105 13.1662C40.8522 12.3343 41.9879 11.8677 43.1714 11.8677C44.3549 11.8677 45.4906 12.3343 46.3323 13.1662C46.7491 13.59 47.0757 14.0938 47.2923 14.6472C47.509 15.2007 47.6112 15.7924 47.5927 16.3864L47.573 22.0682Z" fill="#191B1D"/>
<path d="M55.6137 16.9791V8.58679H56.9254V13.6206C57.3741 13.0793 57.9343 12.6413 58.5678 12.3365C59.2013 12.0317 59.8932 11.8672 60.5961 11.8544C61.285 11.8181 61.9736 11.9326 62.6137 12.1899C63.2538 12.4472 63.8301 12.841 64.3023 13.344C65.2866 14.3083 65.8514 15.6216 65.8743 16.9994C65.8972 18.3771 65.3764 19.7085 64.4248 20.705C63.9718 21.1916 63.4258 21.5823 62.819 21.8537C62.2122 22.1252 61.557 22.2721 60.8924 22.2855C60.2002 22.2976 59.5125 22.1711 58.87 21.9134C58.2274 21.6556 57.6429 21.2718 57.151 20.7847C56.659 20.2975 56.2696 19.7168 56.0055 19.0768C55.7415 18.4368 55.6083 17.7504 55.6137 17.0581V16.9791ZM63.4804 19.7449C63.8287 19.3755 64.1008 18.9411 64.2811 18.4666C64.4615 17.992 64.5465 17.4865 64.5314 16.9791C64.5283 16.4753 64.4243 15.9773 64.2254 15.5145C64.0266 15.0517 63.737 14.6334 63.3737 14.2844C63.0289 13.9185 62.6114 13.6286 62.1481 13.4333C61.6848 13.238 61.1857 13.1417 60.683 13.1504C60.1947 13.1425 59.7102 13.2381 59.2614 13.4308C58.8126 13.6235 58.4097 13.909 58.0792 14.2686C57.3587 15.0185 56.9562 16.0181 56.9562 17.0581C56.9562 18.0981 57.3587 19.0977 58.0792 19.8476C58.432 20.2325 58.8662 20.5339 59.35 20.73C59.8339 20.9262 60.3554 21.0121 60.8766 20.9816C61.3722 20.9648 61.859 20.8464 62.307 20.6337C62.7549 20.4209 63.1543 20.1184 63.4804 19.7449Z" fill="#191B1D"/>
<path d="M76.053 20.8077C75.577 21.2862 75.0097 21.6644 74.3849 21.9197C73.7601 22.1751 73.0903 22.3025 72.4154 22.2944C71.7404 22.2863 71.074 22.1429 70.4554 21.8726C69.8369 21.6023 69.2789 21.2106 68.8145 20.7208C68.3485 20.2419 67.9819 19.6756 67.7358 19.0544C67.4896 18.4333 67.3688 17.7695 67.3802 17.1015C67.3724 16.4048 67.5064 15.7138 67.774 15.0706C68.0416 14.4273 68.4373 13.8452 68.937 13.3597C69.4087 12.8552 69.9845 12.4592 70.6245 12.1993C71.2644 11.9394 71.9532 11.8217 72.6432 11.8543C73.3101 11.8697 73.9669 12.0202 74.5741 12.2966C75.1812 12.573 75.726 12.9696 76.1755 13.4625C77.1272 14.4558 77.6482 15.7848 77.6253 17.1603C77.6023 18.5358 77.0373 19.8466 76.053 20.8077ZM72.3626 20.9815C72.8847 21.0196 73.4084 20.9372 73.8935 20.7405C74.3786 20.5439 74.8119 20.2384 75.1601 19.8475C75.5328 19.471 75.8249 19.0224 76.0185 18.5292C76.2121 18.036 76.3032 17.5086 76.2862 16.979C76.262 15.969 75.8553 15.0059 75.1482 14.2843C74.8205 13.9254 74.4204 13.6401 73.9743 13.4473C73.5281 13.2546 73.0462 13.1587 72.5602 13.1661C72.0553 13.1526 71.5533 13.2452 71.0864 13.4378C70.6195 13.6304 70.1982 13.9187 69.8497 14.2843C69.4881 14.6366 69.2013 15.0583 69.0065 15.524C68.8116 15.9897 68.7127 16.49 68.7157 16.9948C68.6973 17.501 68.779 18.0058 68.9559 18.4804C69.1329 18.955 69.4017 19.39 69.747 19.7606C70.0734 20.1357 70.4748 20.4381 70.9254 20.6484C71.3759 20.8587 71.8655 20.9722 72.3626 20.9815Z" fill="#191B1D"/>
<path d="M89.5501 22.0681H88.2542V20.5113C87.7751 21.0982 87.1655 21.565 86.474 21.8744C85.7825 22.1838 85.0282 22.3272 84.2714 22.2933C83.6092 22.2793 82.9565 22.1322 82.3524 21.8607C81.7482 21.5891 81.2049 21.1988 80.7548 20.7128C79.8058 19.7159 79.2855 18.3867 79.3054 17.0105C79.3254 15.6343 79.884 14.3208 80.8615 13.3518C81.3347 12.8444 81.9129 12.4465 82.5557 12.1858C83.1986 11.9251 83.8907 11.8079 84.5835 11.8424C85.2537 11.8587 85.9139 12.0095 86.5247 12.2857C87.1356 12.562 87.6847 12.9581 88.1396 13.4506C88.6127 13.9193 88.9818 14.4824 89.2228 15.1033C89.4638 15.7242 89.5713 16.3889 89.5383 17.054V22.0562L89.5501 22.0681ZM80.6521 16.979C80.6333 17.4852 80.7147 17.9901 80.8917 18.4648C81.0687 18.9394 81.3377 19.3744 81.6834 19.7448C82.0102 20.1178 82.4097 20.4201 82.8574 20.6335C83.3051 20.8468 83.7916 20.9666 84.2872 20.9854C84.8087 21.0188 85.3311 20.9342 85.8154 20.7379C86.2997 20.5415 86.7335 20.2386 87.0846 19.8515C87.459 19.4723 87.7528 19.0213 87.9483 18.5256C88.1439 18.0299 88.2372 17.4998 88.2226 16.9671C88.2139 15.957 87.8113 14.9901 87.1004 14.2724C86.7699 13.9129 86.367 13.6274 85.9182 13.4346C85.4694 13.2419 84.9849 13.1464 84.4966 13.1542C83.9923 13.1448 83.4914 13.2392 83.0251 13.4316C82.5588 13.624 82.1371 13.9102 81.7861 14.2724C81.4246 14.624 81.1379 15.0449 80.943 15.51C80.7482 15.9751 80.6492 16.4747 80.6521 16.979Z" fill="#191B1D"/>
<path d="M92.5926 22.0681H91.1939V12.0993H92.4345V13.5178C92.7109 12.988 93.1424 12.5552 93.6713 12.2772C94.1433 12.0204 94.6751 11.8936 95.2122 11.9097V13.2373C94.6681 13.2334 94.1382 13.4114 93.7068 13.743C93.4036 13.9757 93.1372 14.2528 92.9166 14.5649C92.6721 15.0403 92.5577 15.5719 92.5847 16.1058L92.5926 22.0681Z" fill="#191B1D"/>
<path d="M107.034 17.1371C107.059 17.8314 106.935 18.523 106.67 19.1651C106.405 19.8072 106.005 20.3849 105.497 20.8591C105.013 21.356 104.429 21.7452 103.785 22.0012C103.14 22.2572 102.448 22.3743 101.755 22.3448C101.09 22.3375 100.433 22.1935 99.8249 21.9216C99.2172 21.6497 98.6719 21.2558 98.2229 20.7643C97.7573 20.2852 97.3909 19.7188 97.1448 19.0977C96.8987 18.4766 96.7776 17.813 96.7887 17.145C96.7808 16.4484 96.9148 15.7574 97.1824 15.1141C97.45 14.4709 97.8457 13.8888 98.3454 13.4033C98.8175 12.8994 99.3935 12.5042 100.033 12.245C100.673 11.9857 101.362 11.8686 102.052 11.9018C102.754 11.9165 103.445 12.0817 104.079 12.3864C104.712 12.6911 105.272 13.1281 105.722 13.668V8.65002H107.034V17.1371ZM101.771 21.0369C102.293 21.0736 102.817 20.9901 103.302 20.7929C103.787 20.5956 104.22 20.2898 104.568 19.899C104.944 19.5249 105.238 19.0767 105.431 18.5828C105.625 18.0889 105.713 17.5603 105.691 17.0304C105.681 16.0216 105.279 15.0562 104.568 14.3397C104.239 13.979 103.836 13.6926 103.387 13.4998C102.938 13.307 102.453 13.2121 101.965 13.2215C101.46 13.2085 100.958 13.3013 100.491 13.4938C100.024 13.6864 99.603 13.9745 99.2542 14.3397C98.8924 14.6921 98.6053 15.1137 98.4098 15.5793C98.2143 16.045 98.1145 16.5452 98.1162 17.0502C98.0875 18.0748 98.4653 19.0691 99.1673 19.816C99.4923 20.1896 99.8918 20.4912 100.34 20.7014C100.789 20.9117 101.276 21.026 101.771 21.0369Z" fill="#191B1D"/>
<path d="M4.8289 0.0596924H0.0267715V15.5266H4.8289V0.0596924Z" fill="#4F00DD"/>
<path d="M10.3373 5.83789C8.29281 5.83789 6.29419 6.44417 4.59423 7.58005C2.89426 8.71593 1.5693 10.3304 0.786889 12.2193C0.00447985 14.1082 -0.200235 16.1867 0.198633 18.1919C0.597502 20.1972 1.58204 22.0391 3.02774 23.4848C4.47344 24.9305 6.31538 25.9151 8.32063 26.3139C10.3259 26.7128 12.4044 26.5081 14.2933 25.7257C16.1822 24.9433 17.7966 23.6183 18.9325 21.9183C20.0684 20.2184 20.6747 18.2198 20.6747 16.1752C20.675 14.8176 20.4078 13.4733 19.8883 12.219C19.3689 10.9647 18.6075 9.82499 17.6475 8.86502C16.6876 7.90506 15.5479 7.14363 14.2936 6.62422C13.0393 6.10482 11.6949 5.83762 10.3373 5.83789ZM10.4197 21.6754C7.48325 21.6754 5.10278 19.2188 5.10278 16.1896C5.10278 13.1605 7.48325 10.7059 10.4197 10.7059C13.3562 10.7059 15.7387 13.1605 15.7387 16.1896C15.7387 19.2188 13.3562 21.6754 10.4197 21.6754Z" fill="url(#paint1_linear_128_16477)"/>
<path d="M7.23817 6.31152C4.8838 7.05498 2.87327 8.61655 1.57032 10.7137C0.267367 12.8109 -0.241956 15.3051 0.134496 17.7452C0.510948 20.1853 1.74831 22.4101 3.62273 24.0171C5.49714 25.624 7.88482 26.5071 10.3538 26.5064C10.5597 26.5064 10.7656 26.5064 10.9716 26.4858C-0.792832 17.314 7.08373 6.50715 7.23817 6.31152Z" fill="url(#paint2_linear_128_16477)"/>
<path d="M4.83079 0V2.79644C1.70076 5.13778 0.403444 9.0009 0.0307236 10.3682V0H4.83079Z" fill="url(#paint3_linear_128_16477)"/>
<path d="M4.83079 0V2.79644C1.70076 5.13778 0.403444 9.0009 0.0307236 10.3682V0H4.83079Z" fill="url(#paint4_linear_128_16477)"/>
<defs>
<linearGradient id="paint0_linear_128_16477" x1="28.9038" y1="22.2776" x2="34.8937" y2="11.9018" gradientUnits="userSpaceOnUse">
<stop offset="0.06" stop-color="#EABB6D"/>
<stop offset="0.4" stop-color="#D16853"/>
<stop offset="1" stop-color="#6F3787"/>
</linearGradient>
<linearGradient id="paint1_linear_128_16477" x1="1.86773" y1="10.2446" x2="18.8049" y2="22.1058" gradientUnits="userSpaceOnUse">
<stop stop-color="#EABB6D"/>
<stop offset="0.01" stop-color="#E7B06A"/>
<stop offset="0.06" stop-color="#DF9661"/>
<stop offset="0.1" stop-color="#D9815B"/>
<stop offset="0.15" stop-color="#D47356"/>
<stop offset="0.21" stop-color="#D26B54"/>
<stop offset="0.32" stop-color="#D16853"/>
<stop offset="0.98" stop-color="#843A87"/>
</linearGradient>
<linearGradient id="paint2_linear_128_16477" x1="1.06459" y1="10.8274" x2="13.8462" y2="23.6091" gradientUnits="userSpaceOnUse">
<stop stop-color="#BD4D60"/>
<stop offset="0.36" stop-color="#CF624F"/>
<stop offset="0.81" stop-color="#DC9158"/>
</linearGradient>
<linearGradient id="paint3_linear_128_16477" x1="-1.61872" y1="2.84792" x2="3.19576" y2="5.62788" gradientUnits="userSpaceOnUse">
<stop stop-color="#46477D"/>
<stop offset="0.59" stop-color="#664892"/>
</linearGradient>
<linearGradient id="paint4_linear_128_16477" x1="4.83079" y1="7.06624" x2="1.51922" y2="-4.32431" gradientUnits="userSpaceOnUse">
<stop stop-color="#5C02FF"/>
<stop offset="1" stop-color="#946AF7"/>
</linearGradient>
</defs>
</svg>
