<svg width="21" height="27" viewBox="0 0 21 27" fill="none" xmlns="http://www.w3.org/2000/svg">
<path d="M4.82891 0.0597534H0.0267792V15.5266H4.82891V0.0597534Z" fill="#4F00DD"/>
<path d="M10.3373 5.83795C8.29281 5.83795 6.29419 6.44423 4.59423 7.58011C2.89426 8.71599 1.5693 10.3305 0.786889 12.2194C0.00447985 14.1083 -0.200235 16.1868 0.198633 18.192C0.597502 20.1973 1.58204 22.0392 3.02774 23.4849C4.47344 24.9306 6.31538 25.9151 8.32063 26.314C10.3259 26.7129 12.4044 26.5082 14.2933 25.7257C16.1822 24.9433 17.7966 23.6184 18.9325 21.9184C20.0684 20.2184 20.6747 18.2198 20.6747 16.1753C20.675 14.8177 20.4078 13.4733 19.8883 12.219C19.3689 10.9647 18.6075 9.82505 17.6475 8.86508C16.6876 7.90512 15.5479 7.14369 14.2936 6.62428C13.0393 6.10488 11.6949 5.83768 10.3373 5.83795ZM10.4197 21.6755C7.48325 21.6755 5.10278 19.2188 5.10278 16.1897C5.10278 13.1606 7.48325 10.706 10.4197 10.706C13.3562 10.706 15.7387 13.1606 15.7387 16.1897C15.7387 19.2188 13.3562 21.6755 10.4197 21.6755Z" fill="url(#paint0_linear_355_19669)"/>
<path d="M7.23818 6.31152C4.88381 7.05498 2.87328 8.61655 1.57033 10.7137C0.267374 12.8109 -0.241949 15.3051 0.134503 17.7452C0.510956 20.1853 1.74832 22.4101 3.62274 24.0171C5.49715 25.624 7.88483 26.5071 10.3538 26.5064C10.5597 26.5064 10.7656 26.5064 10.9716 26.4858C-0.792825 17.314 7.08373 6.50715 7.23818 6.31152Z" fill="url(#paint1_linear_355_19669)"/>
<path d="M4.8308 0V2.79644C1.70077 5.13778 0.403452 9.0009 0.0307312 10.3682V0H4.8308Z" fill="url(#paint2_linear_355_19669)"/>
<path d="M4.8308 0V2.79644C1.70077 5.13778 0.403452 9.0009 0.0307312 10.3682V0H4.8308Z" fill="url(#paint3_linear_355_19669)"/>
<defs>
<linearGradient id="paint0_linear_355_19669" x1="1.86773" y1="10.2447" x2="18.8049" y2="22.1059" gradientUnits="userSpaceOnUse">
<stop stop-color="#EABB6D"/>
<stop offset="0.01" stop-color="#E7B06A"/>
<stop offset="0.06" stop-color="#DF9661"/>
<stop offset="0.1" stop-color="#D9815B"/>
<stop offset="0.15" stop-color="#D47356"/>
<stop offset="0.21" stop-color="#D26B54"/>
<stop offset="0.32" stop-color="#D16853"/>
<stop offset="0.98" stop-color="#843A87"/>
</linearGradient>
<linearGradient id="paint1_linear_355_19669" x1="1.0646" y1="10.8274" x2="13.8462" y2="23.6091" gradientUnits="userSpaceOnUse">
<stop stop-color="#BD4D60"/>
<stop offset="0.36" stop-color="#CF624F"/>
<stop offset="0.81" stop-color="#DC9158"/>
</linearGradient>
<linearGradient id="paint2_linear_355_19669" x1="-1.61871" y1="2.84792" x2="3.19577" y2="5.62788" gradientUnits="userSpaceOnUse">
<stop stop-color="#46477D"/>
<stop offset="0.59" stop-color="#664892"/>
</linearGradient>
<linearGradient id="paint3_linear_355_19669" x1="4.8308" y1="7.06624" x2="1.51923" y2="-4.32431" gradientUnits="userSpaceOnUse">
<stop stop-color="#5C02FF"/>
<stop offset="1" stop-color="#946AF7"/>
</linearGradient>
</defs>
</svg>
