<svg width="83" height="16" viewBox="0 0 83 16" fill="none" xmlns="http://www.w3.org/2000/svg">
<path d="M6.89875 15.0795C10.2069 15.0795 12.8887 12.3977 12.8887 9.08957C12.8887 5.7814 10.2069 3.09961 6.89875 3.09961C3.59058 3.09961 0.908783 5.7814 0.908783 9.08957C0.908783 12.3977 3.59058 15.0795 6.89875 15.0795Z" fill="url(#paint0_linear_355_19660)"/>
<path d="M10.5061 12.8077C10.0305 13.3059 9.45354 13.6963 8.8142 13.9526C8.17485 14.2089 7.48797 14.3251 6.7999 14.2933C6.1345 14.2844 5.47793 14.1397 4.8705 13.8679C4.26307 13.5961 3.7176 13.203 3.26756 12.7128C2.32533 11.7116 1.81094 10.3822 1.83382 9.00745C1.85669 7.63274 2.41502 6.3212 3.39004 5.35182C3.86175 4.84699 4.43743 4.45058 5.07732 4.18998C5.71721 3.92939 6.40605 3.81082 7.09624 3.84248C7.7633 3.85695 8.42045 4.00699 9.02771 4.28344C9.63497 4.5599 10.1796 4.95701 10.6286 5.4506C11.5822 6.44301 12.1045 7.77234 12.0816 9.14846C12.0586 10.5246 11.4923 11.8358 10.5061 12.7958V12.8077ZM6.81965 12.9815C7.34161 13.019 7.8652 12.9363 8.35017 12.7397C8.83514 12.5431 9.26855 12.2379 9.61708 11.8475C9.99217 11.4723 10.2863 11.0242 10.4814 10.5308C10.6764 10.0374 10.7682 9.50926 10.7511 8.97899C10.7283 7.96949 10.323 7.0063 9.61708 6.28429C9.28954 5.92627 8.88998 5.64156 8.44464 5.44885C7.99929 5.25614 7.51823 5.15979 7.03302 5.16612C6.52815 5.15261 6.02606 5.24514 5.55918 5.43775C5.0923 5.63035 4.67101 5.91874 4.32252 6.28429C3.96232 6.63478 3.67577 7.05369 3.47968 7.51643C3.28359 7.97917 3.18192 8.47642 3.18063 8.97899C3.14743 10.0006 3.51791 10.9943 4.21189 11.7448C4.53597 12.1218 4.93549 12.4266 5.38466 12.6396C5.83384 12.8526 6.32268 12.9691 6.81965 12.9815Z" fill="white"/>
<path d="M22.573 14.0682H21.2256V8.24413C21.227 7.83871 21.1457 7.43726 20.9868 7.06431C20.8278 6.69135 20.5945 6.35471 20.3011 6.07494C20.0272 5.78464 19.6964 5.55406 19.3292 5.39768C18.962 5.24129 18.5665 5.16248 18.1674 5.16618C17.353 5.17238 16.5737 5.49865 15.9979 6.07454C15.422 6.65043 15.0957 7.42972 15.0895 8.24413V14.0682H13.75V8.38638C13.7316 7.7923 13.8338 7.20066 14.0504 6.64718C14.2671 6.09371 14.5937 5.5899 15.0105 5.16618C15.8522 4.33421 16.9879 3.86761 18.1714 3.86761C19.3549 3.86761 20.4906 4.33421 21.3323 5.16618C21.7491 5.5899 22.0757 6.09371 22.2923 6.64718C22.509 7.20066 22.6112 7.7923 22.5927 8.38638L22.573 14.0682Z" fill="#191B1D"/>
<path d="M30.6137 8.97901V0.586731H31.9254V5.62052C32.3741 5.07927 32.9343 4.64127 33.5678 4.33646C34.2013 4.03164 34.8932 3.86719 35.5961 3.85435C36.285 3.81805 36.9736 3.93254 37.6137 4.18982C38.2538 4.4471 38.8301 4.84097 39.3023 5.34394C40.2866 6.30826 40.8514 7.62153 40.8743 8.99931C40.8972 10.3771 40.3764 11.7084 39.4248 12.705C38.9718 13.1915 38.4258 13.5822 37.819 13.8537C37.2122 14.1252 36.557 14.272 35.8924 14.2854C35.2002 14.2976 34.5125 14.171 33.87 13.9133C33.2274 13.6555 32.6429 13.2718 32.151 12.7846C31.659 12.2975 31.2696 11.7168 31.0055 11.0768C30.7415 10.4367 30.6083 9.75035 30.6137 9.05803V8.97901ZM38.4804 11.7448C38.8287 11.3755 39.1008 10.9411 39.2811 10.4665C39.4615 9.99192 39.5465 9.48647 39.5314 8.97901C39.5283 8.47528 39.4243 7.97728 39.2254 7.51445C39.0266 7.05162 38.737 6.63333 38.3737 6.28431C38.0289 5.91839 37.6114 5.62852 37.1481 5.43325C36.6848 5.23798 36.1857 5.14162 35.683 5.15033C35.1947 5.14245 34.7102 5.23802 34.2614 5.43074C33.8126 5.62346 33.4097 5.90897 33.0792 6.26851C32.3587 7.01843 31.9562 8.01806 31.9562 9.05803C31.9562 10.098 32.3587 11.0976 33.0792 11.8476C33.432 12.2324 33.8662 12.5338 34.35 12.73C34.8339 12.9261 35.3554 13.0121 35.8766 12.9815C36.3722 12.9648 36.859 12.8463 37.307 12.6336C37.7549 12.4209 38.1543 12.1183 38.4804 11.7448Z" fill="#191B1D"/>
<path d="M51.053 12.8076C50.577 13.2862 50.0097 13.6643 49.3849 13.9197C48.7601 14.1751 48.0903 14.3025 47.4154 14.2944C46.7404 14.2863 46.074 14.1428 45.4554 13.8725C44.8369 13.6022 44.2789 13.2105 43.8145 12.7207C43.3485 12.2418 42.9819 11.6755 42.7358 11.0543C42.4896 10.4332 42.3688 9.76948 42.3802 9.10142C42.3724 8.40476 42.5064 7.71378 42.774 7.07053C43.0416 6.42727 43.4373 5.84518 43.937 5.35967C44.4087 4.85512 44.9845 4.45917 45.6245 4.19923C46.2644 3.93929 46.9532 3.82159 47.6432 3.85428C48.3101 3.86967 48.9669 4.02011 49.5741 4.29651C50.1812 4.57291 50.726 4.96953 51.1755 5.4624C52.1272 6.45579 52.6482 7.78471 52.6253 9.16021C52.6023 10.5357 52.0373 11.8465 51.053 12.8076ZM47.3626 12.9815C47.8847 13.0196 48.4084 12.9371 48.8935 12.7405C49.3786 12.5438 49.8119 12.2383 50.1601 11.8475C50.5328 11.4709 50.8249 11.0223 51.0185 10.5292C51.2121 10.036 51.3032 9.5085 51.2862 8.97894C51.262 7.96897 50.8553 7.00585 50.1482 6.28424C49.8205 5.92532 49.4204 5.64004 48.9743 5.44728C48.5281 5.25452 48.0462 5.15867 47.5602 5.16607C47.0553 5.15256 46.5533 5.24509 46.0864 5.4377C45.6195 5.6303 45.1982 5.91869 44.8497 6.28424C44.4881 6.63656 44.2013 7.0582 44.0065 7.52393C43.8116 7.98966 43.7127 8.4899 43.7157 8.99474C43.6973 9.50092 43.779 10.0057 43.9559 10.4803C44.1329 10.9549 44.4017 11.39 44.747 11.7606C45.0734 12.1356 45.4748 12.4381 45.9254 12.6484C46.3759 12.8587 46.8655 12.9721 47.3626 12.9815Z" fill="#191B1D"/>
<path d="M64.5501 14.0681H63.2542V12.5113C62.7751 13.0982 62.1655 13.565 61.474 13.8744C60.7825 14.1838 60.0282 14.3272 59.2714 14.2933C58.6092 14.2793 57.9565 14.1322 57.3524 13.8607C56.7482 13.5891 56.2049 13.1988 55.7548 12.7128C54.8058 11.7159 54.2855 10.3867 54.3054 9.01053C54.3254 7.63431 54.884 6.32076 55.8615 5.3518C56.3347 4.84445 56.9129 4.44652 57.5557 4.18582C58.1986 3.92512 58.8907 3.80793 59.5835 3.84245C60.2537 3.85873 60.9139 4.00947 61.5247 4.28571C62.1356 4.56195 62.6847 4.95807 63.1396 5.45058C63.6127 5.91929 63.9818 6.48243 64.2228 7.1033C64.4638 7.72417 64.5713 8.38885 64.5383 9.05404V14.0562L64.5501 14.0681ZM55.6521 8.97897C55.6333 9.48519 55.7147 9.99014 55.8917 10.4648C56.0687 10.9394 56.3377 11.3744 56.6834 11.7448C57.0102 12.1178 57.4097 12.4201 57.8574 12.6335C58.3051 12.8468 58.7916 12.9666 59.2872 12.9854C59.8087 13.0188 60.3311 12.9342 60.8154 12.7379C61.2997 12.5415 61.7335 12.2386 62.0846 11.8515C62.459 11.4723 62.7528 11.0213 62.9483 10.5256C63.1439 10.0299 63.2372 9.49978 63.2226 8.96711C63.2139 7.95697 62.8113 6.99011 62.1004 6.27241C61.7699 5.91287 61.367 5.62736 60.9182 5.43464C60.4694 5.24192 59.9849 5.14636 59.4966 5.15424C58.9923 5.14483 58.4914 5.23924 58.0251 5.4316C57.5588 5.62396 57.1371 5.91016 56.7861 6.27241C56.4246 6.624 56.1379 7.04494 55.943 7.51002C55.7482 7.97509 55.6492 8.47473 55.6521 8.97897Z" fill="#191B1D"/>
<path d="M67.5926 14.0681H66.1939V4.09928H67.4345V5.51776C67.7109 4.98798 68.1424 4.55515 68.6713 4.27709C69.1433 4.02032 69.6751 3.89351 70.2122 3.90963V5.23722C69.6681 5.23336 69.1382 5.41136 68.7068 5.74297C68.4036 5.97567 68.1372 6.25273 67.9166 6.56481C67.6721 7.04026 67.5577 7.57185 67.5847 8.10576L67.5926 14.0681Z" fill="#191B1D"/>
<path d="M82.034 9.137C82.0592 9.83127 81.935 10.5229 81.6699 11.165C81.4047 11.8071 81.0047 12.3848 80.497 12.859C80.0129 13.3559 79.4294 13.7451 78.7847 14.0011C78.1399 14.2571 77.4484 14.3742 76.7553 14.3446C76.0896 14.3374 75.4325 14.1934 74.8249 13.9215C74.2172 13.6496 73.6719 13.2557 73.2229 12.7642C72.7573 12.2851 72.3909 11.7187 72.1448 11.0976C71.8987 10.4765 71.7776 9.81291 71.7887 9.14491C71.7808 8.44824 71.9148 7.75727 72.1824 7.11401C72.45 6.47075 72.8457 5.88866 73.3454 5.40315C73.8175 4.89932 74.3935 4.5041 75.0334 4.24486C75.6733 3.98561 76.3619 3.86852 77.0516 3.90171C77.7542 3.91636 78.4454 4.08161 79.0787 4.3863C79.7119 4.69099 80.2724 5.12802 80.7222 5.66788V0.649902H82.034V9.137ZM76.7711 13.0368C77.2933 13.0735 77.817 12.99 78.3019 12.7927C78.7869 12.5955 79.2202 12.2897 79.5685 11.8989C79.9444 11.5248 80.2382 11.0765 80.4314 10.5827C80.6246 10.0888 80.7129 9.56016 80.6906 9.03033C80.6814 8.02148 80.2788 7.05606 79.5685 6.33958C79.2389 5.97884 78.8362 5.69251 78.3872 5.4997C77.9382 5.30688 77.4532 5.21201 76.9647 5.2214C76.4599 5.20838 75.9579 5.30114 75.4911 5.49372C75.0243 5.68629 74.603 5.97443 74.2542 6.33958C73.8924 6.69198 73.6053 7.11355 73.4098 7.5792C73.2143 8.04484 73.1145 8.54506 73.1162 9.05008C73.0875 10.0746 73.4653 11.069 74.1673 11.8159C74.4923 12.1895 74.8918 12.4911 75.3402 12.7013C75.7886 12.9116 76.276 13.0258 76.7711 13.0368Z" fill="#191B1D"/>
<defs>
<linearGradient id="paint0_linear_355_19660" x1="3.90377" y1="14.2775" x2="9.89373" y2="3.90169" gradientUnits="userSpaceOnUse">
<stop offset="0.06" stop-color="#EABB6D"/>
<stop offset="0.4" stop-color="#D16853"/>
<stop offset="1" stop-color="#6F3787"/>
</linearGradient>
</defs>
</svg>
